<!-- 

    This icon is licensed under Creative Commons license.

    Attribution Text: "Sync by Tanvir Islam from the Noun Project"

    Make sure to give the creator credits by showing the attribution text in your app!
    Else, buy a commercial license from The Noun Project to use the icon (https://thenounproject.com).
    
-->
<svg xmlns="http://www.w3.org/2000/svg" data-name="Layer 1" viewBox="0 0 64 80" x="0px" y="0px">
	<path d="M52.26,5.28l.44,9.09A27.19,27.19,0,0,0,5.25,26.93a1.33,1.33,0,0,0,1.06,1.54l.24,0h5.38a1.31,1.31,0,0,0,1.28-1A19.31,19.31,0,0,1,48,21.22l-11.13-.53a1.31,1.31,0,0,0-1.38,1.25v5.27a1.32,1.32,0,0,0,1.31,1.32h22a1.32,1.32,0,0,0,1.32-1.32v-22A1.32,1.32,0,0,0,58.78,3.9h-5.2a1.32,1.32,0,0,0-1.32,1.32Z" />
	<path d="M32,51.32a19.28,19.28,0,0,1-16-8.54l11.17.53a1.31,1.31,0,0,0,1.38-1.25V36.79a1.32,1.32,0,0,0-1.32-1.31h-22A1.32,1.32,0,0,0,3.9,36.79v22A1.32,1.32,0,0,0,5.22,60.1h5.2a1.32,1.32,0,0,0,1.32-1.32v-.07l-.46-9.06A27.19,27.19,0,0,0,58.71,37.07a1.33,1.33,0,0,0-1.06-1.54l-.23,0H52a1.31,1.31,0,0,0-1.28,1A19.31,19.31,0,0,1,32,51.32Z" />
</svg>
