<svg xmlns="http://www.w3.org/2000/svg" xmlns:xlink="http://www.w3.org/1999/xlink" version="1.1" x="0px" y="0px" viewBox="0 0 100 125" style="enable-background:new 0 0 100 100;" xml:space="preserve">
	<g>
		<path d="M81.2,38.9c-3.5-12.9-15.3-22-28.9-22c-11.4,0-21.9,6.7-26.9,16.8C12.6,34.6,2.5,45.3,2.5,58.4     c0,13.6,11.1,24.7,24.7,24.7h47.7c12.4,0,22.6-10.1,22.6-22.6C97.5,50.3,90.8,41.6,81.2,38.9z M74.9,75.4H27.2     c-9.4,0-17-7.6-17-17s7.6-17,17-17c0.2,0,0.4,0,0.6,0c1.6,0,3.2-0.9,3.7-2.5c3.3-8.5,11.6-14.3,20.8-14.3     c10.7,0,19.9,7.6,21.9,18.1c0.3,1.6,1.6,2.9,3.2,3.1c7.2,1.2,12.4,7.3,12.4,14.6C89.8,68.7,83.1,75.4,74.9,75.4z" />
	</g>
	<g transform="translate(14,-958.36218)">
    <path id="third" d="m 35,1000.3621 c -8.058,0 -15.4484,2.7386 -21.2188,7.1875 a 2.0002,2.0002 0 1 0 2.4376,3.1562 c 5.0947,-3.9281 11.635,-6.3437 18.7812,-6.3437 7.1462,0 13.6865,2.4156 18.7812,6.3437 a 2.0002,2.0002 0 1 0 2.4376,-3.1562 C 50.4484,1003.1007 43.058,1000.3621 35,1000.3621" />
    <path id="second" d="m 35,1009.3621 c -5.8189,0 -11.3007,1.7801 -15.5625,5.2812 a 2.0002,2.0002 0 1 0 2.5313,3.0938 c 3.4852,-2.8633 8.0339,-4.375 13.0312,-4.375 4.9973,0 9.546,1.5117 13.0312,4.375 a 2.0002,2.0002 0 1 0 2.5313,-3.0938 c -4.2618,-3.5011 -9.7436,-5.2812 -15.5625,-5.2812" />
    <path opacity="0.4" id="first" d="m 35,1018.9376 c -3.6493,0 -7.1142,1.1668 -9.8125,3.3437 a 2.0009763,2.0009763 0 0 0 2.5,3.125 c 1.9329,-1.5594 4.5256,-2.4687 7.3125,-2.4687 2.7869,0 5.3796,0.9093 7.3125,2.4687 a 2.0009763,2.0009763 0 1 0 2.5,-3.125 c -2.6983,-2.1769 -6.1632,-3.3437 -9.8125,-3.3437 z m 0,8.0625 z" />
	</g>
  <animate
    xlink:href="#first"
    attributeName="opacity"
    dur="3s"
    begin="0s"
		calcMode="discrete"		
		from="0.2"
		to="1"
		repeatDur="indefinite"
   />
  <animate
    xlink:href="#second"
    attributeName="opacity"
    dur="3s"
    begin="0.7s"
		calcMode="discrete"		
		from="0.2"
		to="1"
		repeatDur="indefinite"
   />
  <animate
    xlink:href="#third"
    attributeName="opacity"
    dur="3s"
    begin="1.4s"
		calcMode="discrete"		
		from="0.2"
		to="1"
		repeatDur="indefinite"
   />

</svg>
