<!--
This icon is licensed under Creative Commons license.

Attribution Text: "Data by Alice Design from the Noun Project"

Make sure to give the creator credits by showing the attribution text in your app!
Else, buy a commercial license from The Noun Project to use the icon (https://thenounproject.com).
-->
<svg xmlns="http://www.w3.org/2000/svg" xmlns:xlink="http://www.w3.org/1999/xlink" version="1.1" x="0px" y="0px" viewBox="0 0 100 125" style="enable-background:new 0 0 100 100;" xml:space="preserve">
	<g>
		<path d="M81.2,38.9c-3.5-12.9-15.3-22-28.9-22c-11.4,0-21.9,6.7-26.9,16.8C12.6,34.6,2.5,45.3,2.5,58.4     c0,13.6,11.1,24.7,24.7,24.7h47.7c12.4,0,22.6-10.1,22.6-22.6C97.5,50.3,90.8,41.6,81.2,38.9z M74.9,75.4H27.2     c-9.4,0-17-7.6-17-17s7.6-17,17-17c0.2,0,0.4,0,0.6,0c1.6,0,3.2-0.9,3.7-2.5c3.3-8.5,11.6-14.3,20.8-14.3     c10.7,0,19.9,7.6,21.9,18.1c0.3,1.6,1.6,2.9,3.2,3.1c7.2,1.2,12.4,7.3,12.4,14.6C89.8,68.7,83.1,75.4,74.9,75.4z" />
		<path d="M60.8,39.5c-0.8-0.6-1.9-0.5-2.6,0.2L43.4,56.5l-4.5-5.2c-0.7-0.8-1.8-0.9-2.6-0.2l-3.2,2.6c-0.8,0.6-0.9,1.8-0.3,2.6     l6.6,8.9c0.4,0.5,0.9,0.7,1.5,0.8l4.9,0c0.6,0,1.2-0.3,1.5-0.8l15.9-21.3c0.6-0.8,0.5-1.9-0.3-2.6L60.8,39.5z" />
	</g>
</svg>
